<svg width="28" height="28" viewBox="0 0 28 28" fill="none" xmlns="http://www.w3.org/2000/svg">
<rect width="28" height="28" rx="5" fill="#33C534"/>
<path d="M22.3333 5H5.66667C4.75 5 4 5.9 4 7V21C4 22.1 4.75 23 5.66667 23H22.3333C23.25 23 23.9917 22.1 23.9917 21L24 7C24 5.9 23.25 5 22.3333 5ZM11.5 10C12.875 10 14 11.35 14 13C14 14.65 12.875 16 11.5 16C10.125 16 9 14.65 9 13C9 11.35 10.125 10 11.5 10ZM5.73333 21C6.88333 18.61 9.03333 17 11.5 17C13.9667 17 16.1167 18.61 17.2667 21H5.73333ZM21.1667 12.5C20.9917 12.86 20.6083 12.98 20.3167 12.77L19.6333 12.29V13.24C19.6333 13.65 19.35 13.99 19.0083 13.99C18.6667 13.99 18.3833 13.65 18.3833 13.24V12.3L17.7 12.78C17.6294 12.8292 17.5514 12.8613 17.4705 12.8744C17.3896 12.8875 17.3073 12.8813 17.2284 12.8562C17.1495 12.8312 17.0754 12.7877 17.0105 12.7283C16.9456 12.6689 16.891 12.5947 16.85 12.51C16.809 12.4253 16.7822 12.3317 16.7713 12.2346C16.7604 12.1375 16.7656 12.0388 16.7865 11.9441C16.8074 11.8494 16.8436 11.7605 16.8931 11.6826C16.9426 11.6047 17.0044 11.5392 17.075 11.49L17.75 11L17.0667 10.52C16.9956 10.4713 16.9333 10.4062 16.8834 10.3283C16.8335 10.2505 16.797 10.1615 16.7761 10.0666C16.7551 9.97164 16.7501 9.87265 16.7614 9.77537C16.7727 9.6781 16.7999 9.58449 16.8417 9.5C17.0167 9.14 17.4 9.02 17.6917 9.23L18.375 9.71V8.75C18.375 8.34 18.6583 8 19 8C19.3417 8 19.625 8.34 19.625 8.75V9.7L20.3083 9.22C20.4509 9.12054 20.6205 9.09312 20.7799 9.14375C20.9393 9.19439 21.0755 9.31893 21.1583 9.49C21.2412 9.66106 21.2641 9.86463 21.2219 10.0559C21.1797 10.2472 21.0759 10.4105 20.9333 10.51L20.25 11L20.9333 11.48C21.2333 11.68 21.3417 12.14 21.1667 12.5Z" fill="white"/>
</svg>
