<svg width="15" height="15" viewBox="0 0 15 15" fill="none" xmlns="http://www.w3.org/2000/svg">
<path d="M14.9959 14.4277C15.0354 14.7324 14.7824 15 14.4617 15H7.54395C7.51476 15 7.4854 15 7.45622 15H0.538196C0.217739 15 -0.0350611 14.7329 0.00393182 14.4283C0.00418591 14.4264 0.00444126 14.4244 0.00469786 14.4224C0.043611 14.1217 0.139504 13.8356 0.26684 13.559C0.417629 13.2314 0.692627 13.0127 0.991945 12.8189C1.53708 12.466 2.14214 12.227 2.74547 11.9857C3.17942 11.8122 3.61615 11.6446 4.04871 11.4683C5.27517 10.9397 5.43864 10.5354 5.45723 10.4719C5.46609 10.4349 5.47252 10.397 5.47634 10.3584C5.48503 10.2705 5.49197 10.1823 5.49805 10.094V9.86531C3.85808 9.8792 2.93386 9.46818 2.46749 9.15272C2.28112 9.02666 2.29133 8.76608 2.47665 8.63862C2.91784 8.33517 3.54899 7.46208 3.48743 4.95033C3.39379 1.12272 5.23678 0.490714 5.92384 0.240408C7.9244 -0.487726 8.92971 0.670336 8.92971 0.670336C11.2487 0.464935 11.8887 2.89033 11.6038 5.65268C11.4104 7.52713 12.0781 8.32752 12.5273 8.6484C12.709 8.77814 12.6883 9.04171 12.4989 9.16086C11.3309 9.89568 9.51931 9.84252 9.51931 9.84252V10.3119C9.5207 10.3272 9.52192 10.3426 9.52348 10.3579C9.5273 10.3964 9.53373 10.4343 9.54259 10.4714C9.56135 10.5351 9.72465 10.9394 10.9511 11.4678C11.3837 11.6441 11.8204 11.8119 12.2544 11.9852C12.8579 12.2263 13.4627 12.4653 14.0079 12.8184C14.3072 13.0124 14.5822 13.2309 14.733 13.5585C14.8603 13.835 14.9562 14.1212 14.9951 14.4219C14.9954 14.4238 14.9956 14.4258 14.9959 14.4277Z" fill="#003E47"/>
</svg>
