<svg width="14" height="16" viewBox="0 0 14 16" fill="none" xmlns="http://www.w3.org/2000/svg">
<path d="M11.6593 9.26333C9.81541 8.66106 9.04893 7.91211 9.04893 7.91211L8.98722 7.97094C8.43965 8.48632 7.83403 8.78931 7.28233 8.78931H7.23026C6.67858 8.78931 6.07297 8.48632 5.5254 7.97094L5.46365 7.91211C5.46365 7.91211 4.69724 8.66103 2.85334 9.26333C0.131411 10.2801 0.948704 14.4182 0.947917 14.4502C1.03365 14.9111 1.08361 15.0695 1.12715 15.0873C3.86056 16.3042 10.6521 16.3042 13.3855 15.0873C13.4291 15.0695 13.479 14.9111 13.5648 14.4502C13.564 14.4182 14.3922 10.2966 11.6593 9.26333Z" fill="#003E47"/>
<path d="M10.115 3.98429L10.0921 3.95952C9.939 3.8193 9.95097 3.82734 9.95097 3.82734C9.95097 3.82734 10.2181 2.47946 10.0039 1.84206C9.6676 0.824109 7.6589 0.141855 7.25601 0.0625571C7.25608 0.0618025 7.01097 0.0127538 6.99532 0.0126554C6.99532 0.0126554 6.67842 -0.0514197 6.31113 0.108784C6.07192 0.200812 4.82136 0.767908 4.4664 1.84206C4.25223 2.47946 4.51936 3.82734 4.51936 3.82734C4.51936 3.82734 4.53133 3.8193 4.37815 3.95952L4.35535 3.98429C4.25174 4.10194 4.27733 4.47006 4.39058 4.85303C4.49321 5.23673 4.62697 5.33984 4.65902 5.42971C4.98392 6.9552 6.11369 8.2577 7.26497 8.2577C8.41625 8.2577 9.48634 6.9552 9.81124 5.42971C9.84333 5.33988 9.97709 5.23673 10.0797 4.85303C10.193 4.47002 10.2215 4.07665 10.115 3.98429Z" fill="#003E47"/>
</svg>
