<svg width="18" height="15" viewBox="0 0 18 15" fill="none" xmlns="http://www.w3.org/2000/svg">
<path d="M15.7667 10.725L13.6667 10.275L13.5167 9.675C14.0417 9.15 14.4167 8.4 14.5667 7.575C14.8667 7.425 15.1667 7.2 15.1667 6.825L15.3167 5.7C15.3167 5.4 15.2417 5.175 15.0917 4.95C15.0167 4.875 14.8667 4.8 14.7917 4.725L14.8667 3.75L15.0167 3.6C15.3167 3.225 15.6167 2.625 15.0917 1.725C14.6417 1.125 13.8917 0.75 12.8417 0.75C12.4667 0.75 11.4917 0.75 10.5917 1.35C10.4417 1.425 10.3667 1.65 10.4417 1.8C10.8167 2.55 10.9667 3.6 10.9667 4.95C10.9667 6.825 11.4167 7.65 11.5667 7.875C11.5667 7.95 11.6417 7.95 11.7167 7.95C12.0167 8.1 12.1667 8.4 12.1667 8.85C12.1667 9.15 12.0167 9.375 11.7917 9.525C11.7167 9.6 11.6417 9.75 11.6417 9.825C11.6417 9.975 11.7167 10.05 11.8667 10.125C13.2917 10.725 14.1917 12.15 14.1917 13.725C14.1917 13.95 14.3417 14.1 14.5667 14.1H17.5667C17.7917 14.1 17.9417 13.95 17.9417 13.725C18.1667 12.375 17.1917 11.1 15.7667 10.725ZM11.2667 10.725L9.16669 10.275L9.09169 9.975C10.5167 9.75 11.2667 9.3 11.2667 9.3C11.3417 9.225 11.4167 9.15 11.4167 9C11.4167 8.85 11.3417 8.775 11.2667 8.7C11.2667 8.7 10.2917 7.875 10.2917 5.1C10.2917 2.625 9.69169 1.425 8.56669 1.425H8.41669C8.04169 0.9 7.74169 0.75 6.91669 0.75C5.86669 0.75 3.46669 1.8 3.46669 5.025C3.46669 7.8 2.49169 8.625 2.49169 8.625C2.41669 8.625 2.34169 8.775 2.41669 8.925C2.41669 9.075 2.49169 9.15 2.56669 9.225C2.56669 9.225 3.31669 9.675 4.74169 9.9L4.66669 10.275L2.56669 10.8C1.14169 11.1 0.166687 12.375 0.166687 13.875C0.166687 14.1 0.316687 14.25 0.541687 14.25H13.2917C13.5167 14.25 13.6667 14.1 13.6667 13.875C13.6667 12.375 12.6917 11.1 11.2667 10.725Z" fill="#003E47"/>
</svg>
