<svg width="28" height="28" viewBox="0 0 28 28" fill="none" xmlns="http://www.w3.org/2000/svg">
<circle cx="14" cy="14" r="14" fill="#B2F6DE" fill-opacity="0.5"/>
<g clip-path="url(#clip0_1092_41828)">
<path d="M18.2001 10.7332L15.4001 10.7332L15.4001 12.5999L12.6001 12.5999L12.6001 10.7332L9.80011 10.7332C9.4937 10.7332 9.19028 10.7936 8.90718 10.9108C8.62409 11.0281 8.36687 11.2 8.1502 11.4166C7.93353 11.6333 7.76166 11.8905 7.64439 12.1736C7.52713 12.4567 7.46678 12.7601 7.46678 13.0665L7.46678 18.1999C7.46678 18.8187 7.71261 19.4122 8.1502 19.8498C8.58778 20.2874 9.18128 20.5332 9.80011 20.5332L18.2001 20.5332C18.819 20.5332 19.4124 20.2874 19.85 19.8498C20.2876 19.4122 20.5334 18.8187 20.5334 18.1999L20.5334 13.0665C20.5334 12.7601 20.4731 12.4567 20.3558 12.1736C20.2386 11.8905 20.0667 11.6333 19.85 11.4166C19.4124 10.979 18.819 10.7332 18.2001 10.7332ZM10.2668 19.5999C10.2668 19.1048 10.0701 18.63 9.72005 18.2799C9.36998 17.9299 8.89518 17.7332 8.40011 17.7332L8.40011 16.7999C9.14272 16.7999 9.85491 17.0949 10.38 17.62C10.9051 18.1451 11.2001 18.8573 11.2001 19.5999L10.2668 19.5999ZM8.40011 14.4665L8.40011 13.5332C8.89518 13.5332 9.36998 13.3365 9.72005 12.9865C10.0701 12.6364 10.2668 12.1616 10.2668 11.6665L11.2001 11.6665C11.2001 12.4091 10.9051 13.1213 10.38 13.6464C9.85491 14.1715 9.14272 14.4665 8.40011 14.4665ZM14.4668 18.1159L14.4668 18.6665L13.5334 18.6665L13.5334 18.1999L13.0668 18.1999L13.0668 17.2665L14.0001 17.2665C14.1239 17.2665 14.2426 17.2174 14.3301 17.1299C14.4176 17.0423 14.4668 16.9236 14.4668 16.7999C14.4668 16.6761 14.4176 16.5574 14.3301 16.4699C14.2426 16.3824 14.1239 16.3332 14.0001 16.3332C13.6718 16.3307 13.3548 16.2128 13.1046 16.0002C12.8544 15.7877 12.6868 15.4939 12.6312 15.1703C12.5756 14.8467 12.6355 14.5139 12.8004 14.23C12.9653 13.9461 13.2248 13.7292 13.5334 13.6172L13.5334 13.0665L14.4668 13.0665L14.4668 13.5332L14.9334 13.5332L14.9334 14.4665L14.0001 14.4665C13.8763 14.4665 13.7576 14.5157 13.6701 14.6032C13.5826 14.6907 13.5334 14.8094 13.5334 14.9332C13.5334 15.057 13.5826 15.1757 13.6701 15.2632C13.7576 15.3507 13.8763 15.3999 14.0001 15.3999C14.3284 15.4024 14.6454 15.5203 14.8956 15.7328C15.1459 15.9454 15.3134 16.2392 15.369 16.5628C15.4246 16.8863 15.3647 17.2192 15.1998 17.5031C15.0349 17.787 14.7754 18.0039 14.4668 18.1159ZM19.6001 17.7332C19.105 17.7332 18.6302 17.9299 18.2802 18.2799C17.9301 18.63 17.7334 19.1048 17.7334 19.5999L16.8001 19.5999C16.8001 18.8573 17.0951 18.1451 17.6202 17.62C18.1453 17.0949 18.8575 16.7999 19.6001 16.7999L19.6001 17.7332ZM19.6001 14.4665C18.8575 14.4665 18.1453 14.1715 17.6202 13.6464C17.0951 13.1213 16.8001 12.4091 16.8001 11.6665L17.7334 11.6665C17.7334 12.1616 17.9301 12.6364 18.2802 12.9865C18.6302 13.3365 19.105 13.5332 19.6001 13.5332L19.6001 14.4665ZM12.4648 10.1312L11.8021 9.46854L13.6688 7.60187C13.7122 7.55813 13.7638 7.52341 13.8206 7.49972C13.8775 7.47603 13.9385 7.46383 14.0001 7.46383C14.0617 7.46383 14.1227 7.47603 14.1796 7.49972C14.2364 7.52341 14.2881 7.55813 14.3314 7.60187L16.1981 9.46854L15.5354 10.1312L14.4668 9.05787L14.4668 12.1332L13.5334 12.1332L13.5334 9.05787L12.4648 10.1312Z" fill="#04BB7B"/>
</g>
<defs>
<clipPath id="clip0_1092_41828">
<rect width="14.9333" height="14.9333" fill="white" transform="translate(21.4668 21.4668) rotate(180)"/>
</clipPath>
</defs>
</svg>
