<svg width="39" height="38" viewBox="0 0 39 38" fill="none" xmlns="http://www.w3.org/2000/svg">
<circle opacity="0.7" cx="19.25" cy="19" r="19" fill="#E0EC53"/>
<circle cx="19.5765" cy="18.6738" r="8.96288" fill="#303030"/>
<path d="M21.7567 19.4015C21.4997 19.39 21.2486 19.481 21.0588 19.6545C20.8689 19.8281 20.7557 20.0699 20.7441 20.3269C20.7326 20.5839 20.8236 20.8349 20.9971 21.0248C21.1706 21.2147 21.4125 21.3279 21.6695 21.3395C21.5907 21.5681 21.4577 21.7742 21.2819 21.9402C21.1308 22.077 20.9527 22.1804 20.759 22.2438C20.5654 22.3073 20.3606 22.3293 20.1579 22.3084C19.7895 22.2574 19.4526 22.0728 19.2114 21.7896C18.9702 21.5064 18.8415 21.1445 18.8498 20.7726V18.4326H20.7877C20.9162 18.4326 21.0394 18.3815 21.1303 18.2907C21.2212 18.1998 21.2722 18.0766 21.2722 17.9481C21.2722 17.8196 21.2212 17.6964 21.1303 17.6055C21.0394 17.5147 20.9162 17.4636 20.7877 17.4636H18.8498V15.5257C18.8498 15.1402 18.6967 14.7705 18.4241 14.498C18.1515 14.2254 17.7818 14.0723 17.3964 14.0723C17.0109 14.0723 16.6412 14.2254 16.3686 14.498C16.0961 14.7705 15.9429 15.1402 15.9429 15.5257C15.9429 15.6542 15.994 15.7774 16.0848 15.8683C16.1757 15.9591 16.2989 16.0102 16.4274 16.0102C16.5559 16.0102 16.6791 15.9591 16.77 15.8683C16.8608 15.7774 16.9119 15.6542 16.9119 15.5257C16.9119 15.3972 16.9629 15.274 17.0538 15.1831C17.1446 15.0923 17.2679 15.0412 17.3964 15.0412C17.5249 15.0412 17.6481 15.0923 17.7389 15.1831C17.8298 15.274 17.8808 15.3972 17.8808 15.5257V17.4636H16.9119C16.7834 17.4636 16.6602 17.5147 16.5693 17.6055C16.4784 17.6964 16.4274 17.8196 16.4274 17.9481C16.4274 18.0766 16.4784 18.1998 16.5693 18.2907C16.6602 18.3815 16.7834 18.4326 16.9119 18.4326H17.8808V20.7726C17.8726 21.3859 18.0911 21.9807 18.4943 22.4429C18.8975 22.9051 19.4571 23.2023 20.0658 23.2774H20.3032C20.9457 23.2774 21.5618 23.0222 22.0161 22.5679C22.4704 22.1136 22.7256 21.4974 22.7256 20.855V20.3705C22.7256 20.1135 22.6236 19.8671 22.4418 19.6853C22.2601 19.5036 22.0137 19.4015 21.7567 19.4015Z" fill="#E0EC53"/>
<circle cx="25.6324" cy="12.6182" r="4.8448" fill="white"/>
<circle cx="25.6324" cy="12.6182" r="4.8448" fill="#003E47" fill-opacity="0.8"/>
<path d="M25.7826 14.4987L27.0067 13.3682C27.1077 13.2737 27.1084 13.122 27.0295 13.0262C26.9506 12.9304 26.7962 12.919 26.7055 13.0023L25.8615 13.782L25.8615 10.4385C25.8615 10.3047 25.7587 10.1963 25.6319 10.1963C25.5052 10.1963 25.4024 10.3047 25.4024 10.4385L25.4024 13.782L24.5584 13.0023C24.4676 12.919 24.3155 12.9326 24.2344 13.0262C24.1493 13.1244 24.1663 13.285 24.2571 13.3682L25.4813 14.4987C25.5816 14.578 25.6947 14.5738 25.7826 14.4987Z" fill="#E0EC53"/>
</svg>
