<svg width="14" height="13" viewBox="0 0 14 13" fill="none" xmlns="http://www.w3.org/2000/svg">
<circle cx="7.93066" cy="7" r="5" fill="white"/>
<path d="M7.43065 0C3.83977 0 0.930664 2.90911 0.930664 6.49999C0.930664 10.0909 3.83977 13 7.43065 13C11.0215 13 13.9306 10.0909 13.9306 6.49999C13.9306 2.90911 11.0215 0 7.43065 0ZM11.5098 5.76333L9.48466 7.67288L10.1029 9.88867C10.2271 10.3364 10.0076 10.5069 9.60598 10.2671L7.43065 8.95555L5.25244 10.2642C4.85376 10.504 4.61979 10.3335 4.73244 9.88L5.33044 7.47067L3.36888 5.74023C3.01933 5.43111 3.11465 5.18266 3.57977 5.18266H5.96309L7.09553 2.54801C7.28042 2.12044 7.57508 2.12044 7.7542 2.55088L8.86063 5.18266H11.2757C11.7438 5.18556 11.8478 5.44554 11.5098 5.76333Z" fill="#EAC113"/>
</svg>
